<?xml version="1.0" standalone="no"?><!-- Generator: Gravit.io --><svg xmlns="http://www.w3.org/2000/svg" xmlns:xlink="http://www.w3.org/1999/xlink" style="isolation:isolate" viewBox="0 0 274 518" width="274" height="518"><defs><clipPath id="_clipPath_Y3yu2lLLCIGm6UNb0VMRTXb8uQQ8COgb"><rect width="274" height="518"/></clipPath></defs><g clip-path="url(#_clipPath_Y3yu2lLLCIGm6UNb0VMRTXb8uQQ8COgb)"><g id="g12"><path d=" M 112.032 499.876 C 91.74 499.876 71.447 498.736 51.155 496.455 C 35.395 494.683 23.537 481.231 23.537 460.043 C 19.209 409.667 19.687 317.459 21.355 214.899 L 3.317 216.789 L 3.317 215.4 C 3.317 209.187 8.01 203.975 14.191 203.327 L 21.56 202.555 C 22.147 167.988 22.851 132.411 23.537 96.984 C 23.537 84.38 34.566 69.905 50.413 64.449 C 50.259 65.535 50.181 66.612 50.181 67.676 C 47.36 213.244 44.232 361.495 50.181 430.735 C 50.181 451.922 62.038 465.375 77.798 467.145 C 98.091 469.428 118.383 470.568 138.675 470.568 C 158.968 470.568 179.26 469.428 199.552 467.145 C 199.723 467.127 199.892 467.107 200.061 467.084 C 197.728 484.189 186.844 494.886 172.908 496.455 C 152.616 498.736 132.324 499.876 112.032 499.876" fill="rgb(193,199,203)"/><path d=" M 199.552 467.145 C 158.968 471.709 118.383 471.709 77.798 467.145 C 62.038 465.375 50.181 451.922 50.181 430.735 C 44.232 361.495 47.36 213.244 50.181 67.676 C 50.181 53.323 64.48 36.545 83.912 33.421 C 121.109 27.441 157.672 27.512 193.632 33.333 C 212.989 36.467 227.169 53.273 227.169 67.555 C 230.321 213.173 233.82 361.491 227.169 430.735 C 227.169 451.922 215.312 465.375 199.552 467.145" fill="rgb(36,39,44)"/><path d=" M 221.556 393.524 L 230.436 364.221 C 231.524 312.471 230.759 246.291 229.429 175.713 L 48.161 175.713 C 47.002 244.485 46.321 309.084 47.186 360.227 L 56.045 393.524 L 221.556 393.524 Z " fill="rgb(196,209,209)"/><path d=" M 138.676 465.24 C 118.676 465.24 101.059 464.098 81.059 461.851 C 67.157 460.286 58.174 448.073 58.174 430.735 L 55.51 396.855 L 55.51 167.72 L 60.839 73.005 C 60.839 61.516 72.85 46.783 90.086 44.011 C 108.256 41.091 121.271 39.609 139.277 39.609 C 157.103 39.609 169.775 41.06 187.453 43.921 C 204.577 46.695 216.513 61.409 216.513 72.883 L 221.841 167.72 L 221.841 396.855 L 219.177 430.735 C 219.177 448.073 210.195 460.286 196.292 461.851 C 176.293 464.098 158.675 465.24 138.676 465.24" fill="rgb(51,62,66)"/><path d=" M 55.383 167.721 L 55.383 396.855 C 110.741 414.589 166.269 414.644 221.968 396.855 L 221.968 167.721 C 166.44 142.853 110.911 142.853 55.383 167.721" fill="rgb(51,67,91)"/><path d=" M 197.107 305.851 C 196.855 304.701 196.557 303.568 196.34 302.407 C 195.836 299.717 196.053 297.109 196.801 294.693 C 195.556 283.892 194.955 273.024 195.153 262.083 C 195.199 259.627 195.744 257.441 196.635 255.515 C 194.523 252.683 193.232 249.187 193.344 245.345 C 193.264 243.855 193.365 242.276 193.715 240.604 C 198.737 216.545 210.083 191.984 219.396 166.647 C 192.256 154.869 165.117 148.988 137.977 149.089 L 137.977 410.165 C 164.583 410.229 191.227 406.176 217.909 398.069 C 208.656 382.835 199.104 367.24 194.395 350.351 C 189.957 334.437 192.38 320.048 197.107 305.851 Z " fill="rgb(46,101,120)"/><path d=" M 82.055 234.985 C 80.968 234.985 79.947 234.315 79.552 233.233 L 55.79 168.191 C 55.284 166.808 55.996 165.279 57.378 164.775 C 58.758 164.271 60.29 164.98 60.795 166.363 L 84.557 231.405 C 85.063 232.788 84.351 234.317 82.969 234.823 C 82.667 234.932 82.359 234.985 82.055 234.985 Z " fill="rgb(196,209,209)"/><path d=" M 59.265 400.297 C 58.621 400.297 57.969 400.14 57.364 399.812 C 55.423 398.761 54.703 396.336 55.755 394.395 L 85.117 340.223 C 86.169 338.281 88.597 337.563 90.535 338.615 C 92.476 339.665 93.196 342.091 92.145 344.032 L 62.782 398.204 C 62.058 399.539 60.684 400.297 59.265 400.297 Z " fill="rgb(196,209,209)"/><path d=" M 88.243 289.52 L 55.383 289.52 L 55.383 281.528 L 88.243 281.528 L 88.243 289.52 Z " fill="rgb(196,209,209)"/><path d=" M 195.296 234.985 C 194.991 234.985 194.681 234.932 194.379 234.821 C 192.997 234.315 192.288 232.784 192.795 231.403 L 216.517 166.693 C 217.024 165.312 218.556 164.604 219.936 165.109 C 221.317 165.615 222.027 167.145 221.52 168.528 L 197.797 233.237 C 197.401 234.316 196.381 234.985 195.296 234.985 Z " fill="rgb(196,209,209)"/><path d=" M 217.919 400.076 C 216.5 400.076 215.124 399.316 214.401 397.98 L 185.204 344.029 C 184.155 342.088 184.876 339.663 186.817 338.613 C 188.759 337.561 191.184 338.285 192.235 340.225 L 221.431 394.176 C 222.481 396.117 221.759 398.543 219.819 399.592 C 219.213 399.92 218.561 400.076 217.919 400.076" fill="rgb(196,209,209)"/><path d=" M 221.968 289.52 L 189.108 289.52 L 189.108 281.528 L 221.968 281.528 L 221.968 289.52 Z " fill="rgb(196,209,209)"/><path d=" M 138.612 372.876 C 117.213 372.876 95.549 369.976 74.033 364.244 L 74.033 214.801 C 95.629 206.537 117.323 202.357 138.676 202.357 C 160.027 202.357 181.721 206.537 203.317 214.801 L 203.317 364.235 C 181.732 369.972 160.023 372.876 138.615 372.876 L 138.612 372.876 Z " fill="rgb(232,234,234)"/><path d=" M 55.383 184.817 L 29.96 187.481 L 29.96 186.092 C 29.96 179.877 34.654 174.667 40.835 174.019 L 55.383 172.495 L 55.383 184.817 Z " fill="rgb(51,62,66)"/><path d=" M 221.841 184.817 L 247.264 187.481 L 247.264 186.092 C 247.264 179.877 242.571 174.667 236.389 174.019 L 221.841 172.495 L 221.841 184.817" fill="rgb(51,62,66)"/><path d=" M 60.969 69.753 L 93.002 54.364 C 97.152 52.371 99.791 48.175 99.791 43.571 L 99.791 43.571 C 99.791 42.429 98.744 41.576 97.626 41.807 L 80.95 45.24 C 69.317 47.635 60.969 57.876 60.969 69.753 L 60.969 69.753 Z " fill="rgb(99,119,132)"/><path d=" M 71.147 49.605 C 64.909 54.207 60.969 61.595 60.969 69.753 L 71.147 64.864 L 71.147 49.605 Z " fill="rgb(224,189,101)"/><path d=" M 83.803 51.156 L 93.128 51.156 L 93.128 47.825 L 83.803 47.825 L 83.803 51.156 Z " fill="rgb(189,212,219)"/><path d=" M 73.367 57.427 L 82.692 57.427 L 82.692 54.096 L 73.367 54.096 L 73.367 57.427 Z " fill="rgb(189,212,219)"/><path d=" M 216.261 69.753 L 184.228 54.364 C 180.079 52.371 177.439 48.175 177.439 43.571 L 177.439 43.571 C 177.439 42.429 178.487 41.576 179.604 41.807 L 196.28 45.24 C 207.913 47.635 216.261 57.876 216.261 69.753 L 216.261 69.753 Z " fill="rgb(99,119,132)"/><path d=" M 206.083 49.605 C 212.321 54.207 216.261 61.595 216.261 69.753 L 206.083 64.864 L 206.083 49.605 Z " fill="rgb(224,189,101)"/><path d=" M 193.428 51.156 L 184.103 51.156 L 184.103 47.825 L 193.428 47.825 L 193.428 51.156 Z " fill="rgb(189,212,219)"/><path d=" M 203.863 57.427 L 194.537 57.427 L 194.537 54.096 L 203.863 54.096 L 203.863 57.427 Z " fill="rgb(189,212,219)"/><path d=" M 100.322 51.156 L 93.551 155.344 L 88.244 154.864 L 100.322 51.156 Z " fill="rgb(96,104,124)"/><path d=" M 177.028 51.156 L 189.107 154.864 L 183.8 155.344 L 177.028 51.156 Z " fill="rgb(96,104,124)"/><path d=" M 173.499 467.904 C 172.16 467.904 171.007 466.897 170.855 465.535 C 170.691 464.073 171.744 462.755 173.207 462.591 L 203.023 459.26 C 204.477 459.107 205.803 460.149 205.965 461.614 C 206.129 463.076 205.076 464.393 203.613 464.557 L 173.797 467.888 L 173.499 467.904 Z " fill="rgb(214,0,9)"/><path d=" M 103.542 467.904 L 103.243 467.888 L 73.428 464.557 C 71.965 464.393 70.912 463.076 71.075 461.614 C 71.238 460.149 72.557 459.108 74.019 459.26 L 103.835 462.591 C 105.297 462.755 106.351 464.073 106.187 465.535 C 106.035 466.897 104.881 467.904 103.542 467.904 Z " fill="rgb(214,0,9)"/><path d=" M 111.615 29.709 L 95.326 29.709 L 95.326 26.595 C 95.326 23.605 97.75 21.181 100.74 21.181 L 106.201 21.181 C 109.191 21.181 111.615 23.605 111.615 26.595 L 111.615 29.709 Z " fill="rgb(99,119,132)"/><path d=" M 182.423 29.709 L 166.135 29.709 L 166.135 26.595 C 166.135 23.605 168.559 21.181 171.548 21.181 L 177.009 21.181 C 180 21.181 182.423 23.605 182.423 26.595 L 182.423 29.709" fill="rgb(99,119,132)"/><path d=" M 118.328 255.089 L 118.328 255.089 L 118.328 254.207 L 118.328 255.089 Z  M 118.328 245.536 L 118.328 245.536 L 118.328 244.432 L 118.328 245.536 Z " fill="rgb(48,99,200)"/><path d=" M 118.328 254.207 L 118.328 254.207 L 118.328 245.536 L 118.328 254.207 Z " fill="rgb(48,176,229)"/></g></g></svg>