<svg data-reactroot="" width="24" height="20" x="0" y="0" class="stencil--easier-to-select" style="opacity: 1;"><defs></defs><rect x="0" y="0" width="24" height="20" fill="transparent" class="stencil__selection-helper"></rect><path d="M22.03255813953488 1.650589496248661C19.702325581395346-0.5501964987495529 15.920930232558138-0.5501964987495529 13.590697674418603 1.650589496248661 13.590697674418603 1.650589496248661 11.999999999999998 3.1368345837799216 11.999999999999998 3.1368345837799216 11.999999999999998 3.1368345837799216 10.409302325581393 1.650589496248661 10.409302325581393 1.650589496248661 8.07906976744186-0.5501964987495529 4.297674418604651-0.5501964987495529 1.967441860465116 1.650589496248661-0.655813953488372 4.108610217934976-0.655813953488372 8.11003929974991 1.967441860465116 10.568060021436228 1.967441860465116 10.568060021436228 11.999999999999998 20 11.999999999999998 20 11.999999999999998 20 22.03255813953488 10.568060021436228 22.03255813953488 10.568060021436228 24.65581395348837 8.11003929974991 24.65581395348837 4.108610217934976 22.03255813953488 1.650589496248661 22.03255813953488 1.650589496248661 22.03255813953488 1.650589496248661 22.03255813953488 1.650589496248661M20.53953488372093 9.110396570203644C20.53953488372093 9.110396570203644 11.999999999999998 17.27045373347624 11.999999999999998 17.27045373347624 11.999999999999998 17.27045373347624 3.460465116279069 9.110396570203644 3.460465116279069 9.110396570203644 2.5953488372093014 8.29581993569132 2.260465116279069 7.238299392640228 2.260465116279069 6.109324758842443 2.260465116279069 4.98035012504466 2.455813953488372 4.0657377634869585 3.3209302325581387 3.2511611289746343 4.074418604651163 2.5366202215076816 5.093023255813953 2.1364773133261883 6.195348837209302 2.1364773133261883 7.2837209302325565 2.1364773133261883 8.316279069767441 2.822436584494463 9.069767441860463 3.536977491961416 9.069767441860463 3.536977491961416 11.999999999999998 6.152197213290461 11.999999999999998 6.152197213290461 11.999999999999998 6.152197213290461 14.930232558139533 3.536977491961416 14.930232558139533 3.536977491961416 15.683720930232557 2.822436584494463 16.71627906976744 2.1364773133261883 17.804651162790694 2.1364773133261883 18.89302325581395 2.1364773133261883 19.925581395348836 2.5366202215076816 20.69302325581395 3.2511611289746343 21.544186046511626 4.0657377634869585 21.73953488372093 4.98035012504466 21.73953488372093 6.109324758842443 21.73953488372093 7.238299392640228 21.404651162790692 8.29581993569132 20.53953488372093 9.110396570203644 20.53953488372093 9.110396570203644 20.53953488372093 9.110396570203644 20.53953488372093 9.110396570203644" stroke-width="0" stroke="none" stroke-dasharray="none" fill="rgb(68,219,94)" fill-rule="evenOdd"></path></svg>