<svg data-reactroot="" width="24" height="24" x="0" y="0" class="stencil--easier-to-select" style="opacity: 1;">
  <defs></defs>
  <rect x="0" y="0" width="24" height="24" fill="transparent" class="stencil__selection-helper"></rect>
  <path d="M12 7.636363636363636C9.589090909090906 7.636363636363636 7.636363636363636 9.589090909090906 7.636363636363636 12 7.636363636363636 14.41090909090909 9.589090909090906 16.363636363636363 12 16.363636363636363 14.41090909090909 16.363636363636363 16.363636363636363 14.41090909090909 16.363636363636363 12 16.363636363636363 9.589090909090906 14.41090909090909 7.636363636363636 12 7.636363636363636 12 7.636363636363636 12 7.636363636363636 12 7.636363636363636M21.752727272727274 10.90909090909091C21.245340955047197 6.351962241608386 17.648037759086474 2.7546590387118495 13.09090909090909 2.247272727272727 13.09090909090909 2.247272727272727 13.09090909090909 0 13.09090909090909 0 13.09090909090909 0 10.90909090909091 0 10.90909090909091 0 10.90909090909091 0 10.90909090909091 2.247272727272727 10.90909090909091 2.247272727272727 6.351962240913526 2.7546590387118517 2.7546590449528017 6.351962241608387 2.247272727272727 10.90909090909091 2.247272727272727 10.90909090909091 0 10.90909090909091 0 10.90909090909091 0 10.90909090909091 0 13.09090909090909 0 13.09090909090909 0 13.09090909090909 2.247272727272727 13.09090909090909 2.247272727272727 13.09090909090909 2.754659044952803 17.648037758391613 6.351962240913525 21.245340961288154 10.90909090909091 21.752727272727274 10.90909090909091 21.752727272727274 10.90909090909091 24 10.90909090909091 24 10.90909090909091 24 13.09090909090909 24 13.09090909090909 24 13.09090909090909 24 13.09090909090909 21.752727272727274 13.09090909090909 21.752727272727274 17.648037759086474 21.245340961288154 21.245340955047197 17.648037758391613 21.752727272727274 13.09090909090909 21.752727272727274 13.09090909090909 24 13.09090909090909 24 13.09090909090909 24 13.09090909090909 24 10.90909090909091 24 10.90909090909091 24 10.90909090909091 21.752727272727274 10.90909090909091 21.752727272727274 10.90909090909091 21.752727272727274 10.90909090909091 21.752727272727274 10.90909090909091 21.752727272727274 10.90909090909091M12 19.636363636363637C7.778181818181818 19.636363636363637 4.363636363636363 16.22181818181818 4.363636363636363 12 4.363636363636363 7.778181818181818 7.778181818181818 4.363636363636363 12 4.363636363636363 16.22181818181818 4.363636363636363 19.636363636363637 7.778181818181818 19.636363636363637 12 19.636363636363637 16.22181818181818 16.22181818181818 19.636363636363637 12 19.636363636363637 12 19.636363636363637 12 19.636363636363637 12 19.636363636363637" stroke-width="0" stroke="none" stroke-dasharray="none" fill="rgb(255,40,81)" fill-rule="evenOdd"></path>
</svg>